<svg xmlns="http://www.w3.org/2000/svg" viewBox="0 0 500 500"><g id="freepik--background-complete--inject-15"><rect x="416.78" y="398.49" width="33.12" height="0.25" style="fill:#ebebeb"></rect><rect x="322.53" y="401.21" width="8.69" height="0.25" style="fill:#ebebeb"></rect><rect x="396.59" y="389.21" width="19.19" height="0.25" style="fill:#ebebeb"></rect><rect x="52.46" y="390.89" width="43.19" height="0.25" style="fill:#ebebeb"></rect><rect x="104.56" y="390.89" width="6.33" height="0.25" style="fill:#ebebeb"></rect><rect x="131.47" y="395.11" width="93.68" height="0.25" style="fill:#ebebeb"></rect><path d="M237,337.8H43.92a5.71,5.71,0,0,1-5.71-5.71V60.66A5.71,5.71,0,0,1,43.92,55H237a5.71,5.71,0,0,1,5.71,5.71V332.09A5.71,5.71,0,0,1,237,337.8ZM43.92,55.2a5.47,5.47,0,0,0-5.46,5.46V332.09a5.47,5.47,0,0,0,5.46,5.46H237a5.47,5.47,0,0,0,5.46-5.46V60.66A5.47,5.47,0,0,0,237,55.2Z" style="fill:#ebebeb"></path><path d="M453.31,337.8H260.21a5.72,5.72,0,0,1-5.71-5.71V60.66A5.72,5.72,0,0,1,260.21,55h193.1A5.71,5.71,0,0,1,459,60.66V332.09A5.71,5.71,0,0,1,453.31,337.8ZM260.21,55.2a5.47,5.47,0,0,0-5.46,5.46V332.09a5.47,5.47,0,0,0,5.46,5.46h193.1a5.47,5.47,0,0,0,5.46-5.46V60.66a5.47,5.47,0,0,0-5.46-5.46Z" style="fill:#ebebeb"></path><rect y="382.4" width="500" height="0.25" style="fill:#ebebeb"></rect><rect x="88.31" y="136.56" width="103.5" height="245.67" style="fill:#e6e6e6"></rect><rect x="92.71" y="141.01" width="94.7" height="241.22" style="fill:#f0f0f0"></rect><polygon points="128.61 261.17 145.26 154.32 137.82 154.32 121.17 261.17 128.61 261.17" style="fill:#fafafa"></polygon><polygon points="153.11 261.17 180.75 261.17 180.75 154.32 169.76 154.32 153.11 261.17" style="fill:#fafafa"></polygon><polygon points="130.76 154.32 99.87 154.32 99.87 261.17 114.11 261.17 130.76 154.32" style="fill:#fafafa"></polygon><rect x="99.87" y="287.88" width="80.87" height="88.34" style="fill:#ebebeb"></rect><rect x="99.87" y="265.14" width="6.9" height="17.99" style="fill:#e6e6e6"></rect><rect x="106.78" y="265.14" width="1.36" height="17.99" transform="translate(214.91 548.28) rotate(180)" style="fill:#e0e0e0"></rect><circle cx="101.59" cy="272.21" r="2.91" style="fill:#e0e0e0"></circle><rect x="102.44" y="277.25" width="1.5" height="3.64" style="fill:#e0e0e0"></rect><path d="M103.09,272.21A4.07,4.07,0,1,1,99,268.14,4.07,4.07,0,0,1,103.09,272.21Z" style="fill:#ebebeb"></path><rect x="242.9" y="318.78" width="159.26" height="52.33" style="fill:#ebebeb"></rect><rect x="245.66" y="374.66" width="10.01" height="7.56" style="fill:#e6e6e6"></rect><rect x="404.3" y="312.4" width="10.01" height="69.82" style="fill:#e6e6e6"></rect><path d="M401.75,312.4H240.32v69.82h5.34v-5.78H399.08v5.78h5.34V312.4Zm-156.09,9.34h74V367.1h-74Zm79.38,0h74V367.1H325Z" style="fill:#f5f5f5"></path></g><g id="freepik--Shadow--inject-15"><ellipse id="freepik--path--inject-15" cx="245.18" cy="412.39" rx="193.89" ry="11.32" style="fill:#f5f5f5"></ellipse></g><g id="freepik--Plant--inject-15"><path d="M339.1,323.64s-17.64-1.84-8.13-13.76a23.28,23.28,0,0,1,5.31-4.83c.08,3.08.59,9.48,3.41,8.24,3.08-1.35,6-9.88,6.93-12.68a48.75,48.75,0,0,1,13.45-1.45,83.52,83.52,0,0,1,.07,9c-2.11,1.26-6.22,4-6.4,6.08s3.92,1.68,5.73,1.35a48.71,48.71,0,0,1-2.39,10c-2.56-.73-6.45-1.56-7.63-.22s1.52,5.61,3.22,7.85a14.55,14.55,0,0,1-2.95,2.49C337.11,343.48,339.1,323.64,339.1,323.64Z" style="fill:#407BFF"></path><g style="opacity:0.2"><path d="M340.58,322.15c1.64-8.46,10.94-15.53,17.4-20.1.79-.55-.19-1.69-1-1.13-6.83,4.82-16.19,12.19-17.92,21.1-.19.94,1.3,1.07,1.49.13Z" style="fill:#fff"></path></g><path d="M339.09,365.63l.86-.06c-1.72-25.45,2.07-33.72,5.55-36.18a4.22,4.22,0,0,1,3.87-.68l.34-.78a5,5,0,0,0-4.7.76C341.35,331.27,337.35,339.78,339.09,365.63Z" style="fill:#407BFF"></path><path d="M343.93,363.05c.84-21.65-2.91-29.73-6.21-32.69a5.2,5.2,0,0,0-3.92-1.61l.12.85A4.44,4.44,0,0,1,337.2,331c3.13,2.87,6.7,10.75,5.88,32Z" style="fill:#407BFF"></path><path d="M340.28,363.07l.85-.06c-.88-13,.73-20.75,4.65-22.39,5.11-2.14,12.75,6.42,12.83,6.5l.64-.56c-.33-.37-8.12-9.1-13.8-6.73C341.1,341.65,339.36,349.46,340.28,363.07Z" style="fill:#407BFF"></path><path d="M342.44,363.89c0-8-1.66-12.93-4.94-14.66-3.7-1.94-8,.94-8.15,1.06l.48.7s4-2.71,7.27-1c3,1.57,4.49,6.25,4.48,13.9Z" style="fill:#407BFF"></path><g style="opacity:0.2"><path d="M339.09,365.63l.86-.06c-1.72-25.45,2.07-33.72,5.55-36.18a4.22,4.22,0,0,1,3.87-.68l.34-.78a5,5,0,0,0-4.7.76C341.35,331.27,337.35,339.78,339.09,365.63Z"></path><path d="M343.93,363.05c.84-21.65-2.91-29.73-6.21-32.69a5.2,5.2,0,0,0-3.92-1.61l.12.85A4.44,4.44,0,0,1,337.2,331c3.13,2.87,6.7,10.75,5.88,32Z"></path><path d="M340.28,363.07l.85-.06c-.88-13,.73-20.75,4.65-22.39,5.11-2.14,12.75,6.42,12.83,6.5l.64-.56c-.33-.37-8.12-9.1-13.8-6.73C341.1,341.65,339.36,349.46,340.28,363.07Z"></path><path d="M342.44,363.89c0-8-1.66-12.93-4.94-14.66-3.7-1.94-8,.94-8.15,1.06l.48.7s4-2.71,7.27-1c3,1.57,4.49,6.25,4.48,13.9Z"></path></g><path d="M360.89,405.71,364,361.6H322.31l3.06,44.11a9.53,9.53,0,0,0,9.52,8.88h16.48A9.55,9.55,0,0,0,360.89,405.71Z" style="fill:#263238"></path><path d="M347.83,328.15s-8.66-14.55,6.59-14.76a23.17,23.17,0,0,1,6.49.89c-2,1.35-5.18,3.82-3.54,4.44s7.9-.59,10.88-1.25a48.3,48.3,0,0,1,12.91,11.62,84.55,84.55,0,0,1-9.85,7.86c-1.52-1.51-3.82-3.41-5.12-2.65s-2.73,4.81-3.6,7.7a31.85,31.85,0,0,1-9,2.8c.08-2.33,0-6.09-1.08-6.69s-5.16,3.25-7.43,5.59C333.4,338.67,347.83,328.15,347.83,328.15Z" style="fill:#407BFF"></path><path d="M347.83,328.15s-8.66-14.55,6.59-14.76a23.17,23.17,0,0,1,6.49.89c-2,1.35-5.18,3.82-3.54,4.44s7.9-.59,10.88-1.25a48.3,48.3,0,0,1,12.91,11.62,84.55,84.55,0,0,1-9.85,7.86c-1.52-1.51-3.82-3.41-5.12-2.65s-2.73,4.81-3.6,7.7a31.85,31.85,0,0,1-9,2.8c.08-2.33,0-6.09-1.08-6.69s-5.16,3.25-7.43,5.59C333.4,338.67,347.83,328.15,347.83,328.15Z" style="fill:#fff;opacity:0.30000000000000004"></path><path d="M327.8,339.08c-1.85-.53-4.13,3.14-5.32,5.35a40,40,0,0,1-10.5-6.8c.85-1.86,1.81-4.44,1.2-5.42s-3.94-.21-6.3.53a76.53,76.53,0,0,1-6-7.18,48.39,48.39,0,0,1,5.75-4c3.43.38,8.28.69,9.46-.49s-1.44-2.18-3.34-2.65a37.11,37.11,0,0,1,10-2.79c.45,1.55,1.45,3.94,3.31,3.94s3.79-2.07,5.07-3.61c14.33,3.08,3,13.33,3,13.33s12.33,14.63-2.33,16.59C331,343.38,329.53,339.57,327.8,339.08Z" style="fill:#407BFF"></path><path d="M327.8,339.08c-1.85-.53-4.13,3.14-5.32,5.35a40,40,0,0,1-10.5-6.8c.85-1.86,1.81-4.44,1.2-5.42s-3.94-.21-6.3.53a76.53,76.53,0,0,1-6-7.18,48.39,48.39,0,0,1,5.75-4c3.43.38,8.28.69,9.46-.49s-1.44-2.18-3.34-2.65a37.11,37.11,0,0,1,10-2.79c.45,1.55,1.45,3.94,3.31,3.94s3.79-2.07,5.07-3.61c14.33,3.08,3,13.33,3,13.33s12.33,14.63-2.33,16.59C331,343.38,329.53,339.57,327.8,339.08Z" style="fill:#fff;opacity:0.2"></path><path d="M311.53,349.2c1.75.94,5.07,2.45,6.41,1.11s-.71-7-1.71-9.3a15.91,15.91,0,0,1,5.73-4.54c13.57-6,9,13.47,9,13.47S348,354.06,337,364.57a21.48,21.48,0,0,1-2.54,2.07c-.86-2-2.53-5.35-4.2-4.89s-1,4.78-.49,7.47a34.3,34.3,0,0,1-9,2.32c-.4-1.9-1.16-4.42-2.38-4.35s-3,2.81-4,4.69a46.66,46.66,0,0,1-7.67-.69S307.41,359.28,311.53,349.2Z" style="fill:#407BFF"></path><path d="M357.51,345.8s9.18-15.17,15.92-1.5a23.27,23.27,0,0,1,2.1,6.87c-2.81-1.24-8.82-3.51-8.9-.42-.1,3.36,6.36,9.66,8.52,11.67a49,49,0,0,1-4.43,12.78,81.65,81.65,0,0,1-8.13-3.75c-.25-2.45-1-7.33-2.77-8.38s-3.2,2.83-3.67,4.61a48.61,48.61,0,0,1-8-6.42c1.76-2,4.17-5.17,3.45-6.81-.78-1.8-5.72-1-8.47-.44a14.21,14.21,0,0,1-1-3.72C340.42,335.54,357.51,345.8,357.51,345.8Z" style="fill:#407BFF"></path><g style="opacity:0.30000000000000004"><path d="M350.08,328.58c8.42-3.58,19.1-1.69,27.42.88.92.28,1.31-1.16.39-1.44-8.79-2.72-19.72-4.49-28.56-.74-.88.38-.12,1.67.75,1.3Z" style="fill:#fff"></path></g><g style="opacity:0.30000000000000004"><path d="M304.13,326.74c8.55-1.46,18.75-1.63,26.5,2.64.85.47,1.6-.82.76-1.29-8.16-4.49-18.69-4.32-27.66-2.79-1,.16-.54,1.6.4,1.44Z" style="fill:#fff"></path></g><g style="opacity:0.2"><path d="M329.83,350.25c-10.09,1.09-17.73,10.44-21.73,18.94-.41.87.88,1.63,1.29.76,3.74-7.94,10.92-17.17,20.44-18.21.95-.1,1-1.6,0-1.49Z" style="fill:#fff"></path></g><g style="opacity:0.2"><path d="M358.23,347.77c7,5.09,9.39,16.52,10.77,24.31.17.95,1.61.55,1.44-.39-1.45-8.24-4.13-19.85-11.45-25.21-.78-.57-1.53.73-.76,1.29Z" style="fill:#fff"></path></g></g><g id="freepik--character-2--inject-15"><rect x="312.39" y="91.83" width="109.27" height="96.74" rx="8.54" style="fill:#407BFF"></rect><rect x="312.39" y="91.83" width="109.27" height="96.74" rx="8.54" style="fill:#fff;opacity:0.7000000000000001"></rect><path d="M373.73,114.83S371.42,135,379,136.57c9.4,2,7.13-15.95,7.13-15.95L379,110.28Z" style="fill:#263238"></path><path d="M373.73,114.83S371.42,135,379,136.57c9.4,2,7.13-15.95,7.13-15.95L379,110.28Z" style="opacity:0.6000000000000001"></path><path d="M397.16,119.79s11.42,8.12,6.54,14.56-13-2.66-13.15-7.71S397.16,119.79,397.16,119.79Z" style="fill:#263238"></path><path d="M362.67,168.81l-6.89.66s-8-3.26-10.56-2.49c-1.77.53-4.33,4.54-3.82,6.32.19.66,1.77,1.19,2.45,1.25.9.08,2.55-2,3.45-2.06,1.2-.1,3.54,1.92,4.75,1.94a32.79,32.79,0,0,0,4.28-.66l8.12.19Z" style="fill:#ffc3bd"></path><path d="M359.88,168.54l1.64,5.89s11.88,1.62,16.54-.43,1.15-36.51-3.34-36.13-2,19.45-2,25.44C372.7,167.88,359.88,168.54,359.88,168.54Z" style="fill:#263238"></path><path d="M359.88,168.54l1.64,5.89s11.88,1.62,16.54-.43,1.15-36.51-3.34-36.13-2,19.45-2,25.44C372.7,167.88,359.88,168.54,359.88,168.54Z" style="fill:#fff;opacity:0.5"></path><path d="M373.83,137.91c-4.5,6.44,5.84,16.54,6.06,50.67h33.38c1-9.22,4.43-45.34-.38-52.16C407.36,128.59,378.12,131.78,373.83,137.91Z" style="fill:#263238"></path><path d="M373.83,137.91c-4.5,6.44,5.84,16.54,6.06,50.67h33.38c1-9.22,4.43-45.34-.38-52.16C407.36,128.59,378.12,131.78,373.83,137.91Z" style="fill:#fff;opacity:0.2"></path><path d="M383.69,128.86l6.7-7.28c.64,5.58,3.61,10.16,4.2,10.34l-.73,2.56c-8.12,9.13-10,.36-10,.36C385.85,133.19,383.69,128.86,383.69,128.86Z" style="fill:#ffc3bd"></path><path d="M393.48,118.27a6,6,0,0,1-1.68,4c-1.39,1.42-3,.35-3.34-1.51-.32-1.69,0-4.45,1.77-5.15S393.49,116.4,393.48,118.27Z" style="fill:#ffc3bd"></path><path d="M385.89,170l-6.89.66s-7.8-3.91-10.55-3.54c-1.78.24-5.2,4.49-4.89,6.26.12.68,1.79,1.09,2.46,1.25,1.09.27,4.5-2,4.5-2s3.47,2.84,4.75,3a20.66,20.66,0,0,0,4.28-.67l8.12.2Z" style="fill:#ffc3bd"></path><path d="M411.2,135.86c-2.22-1.51-4.59-.05-7,13.76-2.84,16.38-4.74,17.12-21.11,20.07l1.78,5.89s14,1.72,20.74-2.68S417.17,139.94,411.2,135.86Z" style="fill:#263238"></path><path d="M411.2,135.86c-2.22-1.51-4.59-.05-7,13.76-2.84,16.38-4.74,17.12-21.11,20.07l1.78,5.89s14,1.72,20.74-2.68S417.17,139.94,411.2,135.86Z" style="fill:#fff;opacity:0.5"></path><path d="M387.26,139.59c5.44-.11,10.34-6.61,7.65-7.76a61.51,61.51,0,0,0-10.69,1.32C382.64,134.35,381.63,139.71,387.26,139.59Z" style="fill:#ffc3bd"></path><path d="M387.7,124.5l3.13-.32s-.14,9.36-6.54,10.17c1.19-1.89-.6-5.49-.6-5.49Z" style="fill:#263238;opacity:0.2"></path><path d="M389.48,113.58c1.44,6.61,2.63,10.4.34,14.77a8.79,8.79,0,0,1-15.58.18c-3.05-5.38-4.91-15.29.64-19.9a8.9,8.9,0,0,1,14.6,5Z" style="fill:#ffc3bd"></path><path d="M380.26,118.54c.16.52,0,1-.36,1.12s-.73-.23-.89-.75,0-1,.37-1.13S380.11,118,380.26,118.54Z" style="fill:#263238"></path><path d="M374.36,120.45c.15.52,0,1-.36,1.12s-.74-.23-.89-.76,0-1,.36-1.13S374.21,119.91,374.36,120.45Z" style="fill:#263238"></path><path d="M381.54,116a.27.27,0,0,0,.14-.07.31.31,0,0,0-.06-.44h0a3.1,3.1,0,0,0-2.89-.52.32.32,0,0,0-.18.41h0a.32.32,0,0,0,.41.18h0a2.48,2.48,0,0,1,2.25.39A.31.31,0,0,0,381.54,116Z" style="fill:#263238"></path><path d="M371.24,119.21a.34.34,0,0,0,.18-.24,2.69,2.69,0,0,1,1.34-2,.32.32,0,0,0,.08-.45.32.32,0,0,0-.36-.13h0a3.29,3.29,0,0,0-1.68,2.44.32.32,0,0,0,.25.37h0A.37.37,0,0,0,371.24,119.21Z" style="fill:#263238"></path><path d="M380.67,126.7a6.27,6.27,0,0,1-.82.41.18.18,0,0,1-.24-.09h0a.18.18,0,0,1,.11-.24,4.9,4.9,0,0,0,3-3.29.18.18,0,0,1,.22-.14.17.17,0,0,1,.14.21A5.07,5.07,0,0,1,380.67,126.7Z" style="fill:#263238"></path><path d="M376.41,120.1a20.8,20.8,0,0,1-1.2,5.33,3.19,3.19,0,0,0,2.64-.31Z" style="fill:#ed893e"></path><path d="M373.57,119.67l-1.5,0S373.11,120.57,373.57,119.67Z" style="fill:#263238"></path><path d="M379.4,117.82l-1.51,0S378.92,118.68,379.4,117.82Z" style="fill:#263238"></path><path d="M383,108.78s-2.4,8.29-13.78,7.27c0,0-3.62-13,10.54-13.14,0,0,11.17-4.88,14.3,7.32,0,0,9.87,11.35.55,15.39C387.68,128.62,383,108.78,383,108.78Z" style="fill:#263238"></path><path d="M380.19,175.31H326.94a1.46,1.46,0,1,0,0,2.91h53.25a1.46,1.46,0,0,0,0-2.91Z" style="fill:#263238"></path><path d="M327.73,177.33h18.2a.69.69,0,0,0,.65-.91l-10-28.52a2,2,0,0,0-1.85-1.31h-18.2a.69.69,0,0,0-.65.92l10,28.51A1.94,1.94,0,0,0,327.73,177.33Z" style="fill:#263238"></path><path d="M326.85,177.33h18.2a.69.69,0,0,0,.65-.91l-10-28.52a2,2,0,0,0-1.85-1.31h-18.2a.69.69,0,0,0-.65.92L325,176A2,2,0,0,0,326.85,177.33Z" style="fill:#407BFF"></path><path d="M329.91,163.91h2.31a.09.09,0,0,0,.08-.12L331,160.18a.25.25,0,0,0-.24-.16h-2.3a.08.08,0,0,0-.08.11l1.26,3.61A.26.26,0,0,0,329.91,163.91Z" style="fill:#fff;opacity:0.5"></path><path d="M348.27,178.22a1.46,1.46,0,1,1,0-2.91h31.92a1.46,1.46,0,0,1,0,2.91Z" style="fill:#407BFF"></path><path d="M388.31,178.27H312.39V180a8.49,8.49,0,0,0,.45,2.73h75.47a2.25,2.25,0,0,0,0-4.49Z" style="fill:#407BFF"></path><path d="M320.93,188.58h65.29v-5.82H312.84A8.53,8.53,0,0,0,320.93,188.58Z" style="fill:#407BFF"></path><path d="M388.31,178.27H312.39V180a8.49,8.49,0,0,0,.45,2.73h75.47a2.25,2.25,0,0,0,0-4.49Z" style="fill:#fff;opacity:0.6000000000000001"></path><path d="M320.93,188.58h65.29v-5.82H312.84A8.53,8.53,0,0,0,320.93,188.58Z" style="fill:#fff;opacity:0.4"></path></g><g id="freepik--character-1--inject-15"><path d="M111.26,338.82H99.5a11.94,11.94,0,0,1-11.84-10.94l-2.14-27.13L90,300.4l2.14,27.13a7.44,7.44,0,0,0,7.38,6.81h11.76Z" style="fill:#263238"></path><path d="M105.32,303.65a5.15,5.15,0,0,0,4.59-5.64l-3.56-34.73a5.13,5.13,0,0,0-5.63-4.58h-34a3.42,3.42,0,0,0-3.06,3.76l3.9,38.12a3.43,3.43,0,0,0,3.76,3.07Z" style="fill:#407BFF"></path><path d="M105.32,303.65a5.15,5.15,0,0,0,4.59-5.64l-3.56-34.73a5.13,5.13,0,0,0-5.63-4.58h-34a3.42,3.42,0,0,0-3.06,3.76l3.9,38.12a3.43,3.43,0,0,0,3.76,3.07Z" style="opacity:0.30000000000000004"></path><path d="M67.55,300.58l-3.9-38.12a3.42,3.42,0,0,1,3.06-3.76h0a5.13,5.13,0,0,1,5.63,4.58L75.9,298a5.15,5.15,0,0,1-4.59,5.64h0A3.43,3.43,0,0,1,67.55,300.58Z" style="fill:#407BFF"></path><path d="M106,404.57l.3-.92a2.88,2.88,0,0,1,2.74-2h31.8a2.89,2.89,0,0,1,2.82,2.26l.08.37a2.79,2.79,0,0,0,2.73,2.19h0a2.79,2.79,0,0,0,2.73-3.4l-.08-.36a8.48,8.48,0,0,0-8.28-6.66h-31.8a8.48,8.48,0,0,0-8,5.82l-.31.93a2.8,2.8,0,0,0,2.66,3.67h0A2.8,2.8,0,0,0,106,404.57Z" style="fill:#263238"></path><rect x="119.79" y="396.07" width="9.84" height="5.59" style="opacity:0.7000000000000001"></rect><path d="M124.71,405.86h0a2.8,2.8,0,0,1-2.8-2.8V328.72h5.59v74.34A2.8,2.8,0,0,1,124.71,405.86Z" style="fill:#263238"></path><path d="M128.62,410.93a3.92,3.92,0,1,1-3.91-3.91A3.92,3.92,0,0,1,128.62,410.93Z" style="fill:#407BFF"></path><path d="M104.48,410.93a3.92,3.92,0,1,1-3.92-3.91A3.93,3.93,0,0,1,104.48,410.93Z" style="fill:#407BFF"></path><path d="M153.2,410.93a3.92,3.92,0,1,1-3.91-3.91A3.92,3.92,0,0,1,153.2,410.93Z" style="fill:#407BFF"></path><rect x="121.91" y="333.05" width="5.59" height="13.23" style="opacity:0.7000000000000001"></rect><path d="M142.86,339.42H106a6.61,6.61,0,0,1-6.44-5.18l-1.1-5H151l-1.86,5.64A6.6,6.6,0,0,1,142.86,339.42Z" style="fill:#263238"></path><path d="M142.86,339.42H106a6.61,6.61,0,0,1-6.44-5.18l-1.1-5H151l-1.86,5.64A6.6,6.6,0,0,1,142.86,339.42Z" style="fill:#fff;opacity:0.5"></path><path d="M97.3,324.19h54.81a4.59,4.59,0,0,1,4.59,4.59v1.31a3.06,3.06,0,0,1-3.06,3.06H95.78a3.06,3.06,0,0,1-3.06-3.06v-1.31A4.59,4.59,0,0,1,97.3,324.19Z" style="fill:#407BFF"></path><path d="M163.38,302.1s23-1.15,24.66,6.53-1.84,98-1.84,98l-7.25.45s-12.55-72.36-6.38-84.76l-18.29.25Z" style="fill:#ff8b7b"></path><path d="M187.58,366c-4.49-.05-9.53.06-14.49.27.51,4.44,1.07,8.85,1.64,13a109.39,109.39,0,0,0,12.53-3.15C187.37,372.89,187.47,369.48,187.58,366Z" style="opacity:0.1;mix-blend-mode:multiply"></path><path d="M188,406.35a.19.19,0,0,1-.16-.14.18.18,0,0,1,.08-.2c.11-.08,2.75-1.85,4.09-1.58a1,1,0,0,1,.62.39.71.71,0,0,1,.07.81,3.32,3.32,0,0,1-2.27.77A13.16,13.16,0,0,1,188,406.35Zm.59-.29c1.48.07,3.46-.08,3.79-.62,0-.07.09-.18-.07-.41a.48.48,0,0,0-.38-.23,1.45,1.45,0,0,0-.36,0A8.5,8.5,0,0,0,188.54,406.06Z" style="fill:#407BFF"></path><path d="M187.85,406.35a.18.18,0,0,1-.09-.16c0-.1.06-2.24,1-3.14a1.38,1.38,0,0,1,1-.39c.51,0,.69.26.73.47.23.88-1.54,2.72-2.45,3.2a.11.11,0,0,1-.08,0Zm1.83-3.33a.94.94,0,0,0-.63.28,4.39,4.39,0,0,0-.87,2.49c.93-.65,2.08-2.07,2-2.6,0-.05,0-.18-.39-.19l-.1,0Z" style="fill:#407BFF"></path><path d="M187.07,405.31l-8.59.62a.69.69,0,0,0-.64.59l-1.05,7.1a1.15,1.15,0,0,0,1,1.32,1,1,0,0,0,.25,0c3.09-.28,5.84-.65,9.69-.92,4.55-.33,3.44.3,8.8,0,3.22-.19,3.55-3.9,2.17-4-6.32-.33-7.1-2.18-9.68-4.24A2.75,2.75,0,0,0,187.07,405.31Z" style="fill:#263238"></path><path d="M149.37,302.84s23.06,1.1,24.32,8.86-7.7,95.48-7.7,95.48l-7.27.1s-9.05-72.88-2.29-85l-18.28-.63Z" style="fill:#ff8b7b"></path><path d="M168.69,379.71c.41-4.28.84-8.82,1.27-13.45-5.5,0-10.85,0-15.12.11.32,4.88.71,9.71,1.11,14.26C158.56,380.58,163.16,380.38,168.69,379.71Z" style="opacity:0.1;mix-blend-mode:multiply"></path><path d="M167.59,407.07a.19.19,0,0,1-.15-.15.18.18,0,0,1,.08-.19c.12-.08,2.83-1.73,4.15-1.41a1,1,0,0,1,.61.42.71.71,0,0,1,0,.81,3.4,3.4,0,0,1-2.31.67A14,14,0,0,1,167.59,407.07Zm.6-.27c1.48.14,3.46.07,3.82-.46.05-.06.09-.18,0-.41a.56.56,0,0,0-.38-.25,1.46,1.46,0,0,0-.36,0A8.72,8.72,0,0,0,168.19,406.8Z" style="fill:#407BFF"></path><path d="M167.49,407.07a.19.19,0,0,1-.08-.17c0-.1.15-2.24,1.13-3.09a1.38,1.38,0,0,1,1-.35c.51,0,.68.29.71.5.19.88-1.65,2.65-2.58,3.1a.11.11,0,0,1-.08,0Zm2-3.26a1,1,0,0,0-.63.26,4.41,4.41,0,0,0-1,2.45c1-.61,2.16-2,2.1-2.52,0-.05,0-.18-.38-.2Z" style="fill:#407BFF"></path><path d="M166.75,406l-8.61.27a.69.69,0,0,0-.66.56l-1.34,7.05a1.15,1.15,0,0,0,.91,1.36,1,1,0,0,0,.24,0c3.1-.15,5.86-.4,9.72-.52,4.57-.13,3.43.45,8.79.36,3.23-.06,3.71-3.75,2.34-3.89-6.3-.59-7-2.47-9.5-4.64A2.78,2.78,0,0,0,166.75,406Z" style="fill:#263238"></path><path d="M99.36,286.52a51.4,51.4,0,0,1-2.22,8.35c-2.94,8.43-3.6,22,2.34,26.87,9.36,7.64,45.43-1.09,50.66,4.53,4.36,4.69,2,49.13,2,49.13a379.48,379.48,0,0,0,38.75-3.63s-2-11.6-1.12-33.85,3.06-34.18-10.46-35.71-37.62-6.14-40.61-10.74c-2-3.09-1.07-4.86-1.07-4.86Z" style="fill:#263238"></path><path d="M179.44,373.31c-.84-4-1.87-13.89-.41-37.38.94-15.12,4.12-31.1-9-31.1a9,9,0,0,1,7.21,9.1c0,6.76-3.56,48.54-4.56,60.07C174.88,373.8,177.14,373.57,179.44,373.31Z" style="opacity:0.5"></path><path d="M138.51,291.09c-1.7-2.85-.84-4.48-.84-4.48l-38.31-.09a48.71,48.71,0,0,1-1.54,6.27c4.94.43,15.17,1.13,21.52.78,8.89-.48,20.47,2.5,20.47,2.5S135.71,293.05,138.51,291.09Z" style="opacity:0.5"></path><path d="M151.69,210.64s-2.47,6.13-.68,15.58c1.44,7.56-11.59,4.43-15.87,0S148.47,210,148.47,210Z" style="fill:#263238"></path><path d="M151.69,210.64s-2.47,6.13-.68,15.58c1.44,7.56-11.59,4.43-15.87,0S148.47,210,148.47,210Z" style="opacity:0.4"></path><path d="M152.77,274.5l5.37,1.45s7.17-4,9.67-3.46c1.37.31,3.43,2.58,4.93,4.42a2,2,0,0,1-1.06,3.15h0a1.86,1.86,0,0,1-1,0L167,279s-4.11,1.83-5.73,1.93c-2.84.18-10.64-2-10.64-2Z" style="fill:#ff8b7b"></path><path d="M143.42,231c2.29.36,6.78,2.83,1.93,23.12-.76,3.21-2.12,9.31-1.07,12.44,1.89,5.65,12.15,8.18,12.15,8.18l-1.16,5.75s-19-4.08-20.91-10.69C132.49,263.42,133.2,229.42,143.42,231Z" style="fill:#407BFF"></path><path d="M143.42,231c2.29.36,6.78,2.83,1.93,23.12-.76,3.21-2.12,9.31-1.07,12.44,1.89,5.65,12.15,8.18,12.15,8.18l-1.16,5.75s-19-4.08-20.91-10.69C132.49,263.42,133.2,229.42,143.42,231Z" style="fill:#fff;opacity:0.6000000000000001"></path><path d="M98.12,288.38a150.27,150.27,0,0,0,40,0s-1.41-8.52,1.33-22.68c.34-1.73,3.13-12,3.63-13.69,5.4-18.18,8.38-22.79-16.39-24.56-21.29-1.51-24.53,3.82-25.08,16.4S98.12,288.38,98.12,288.38Z" style="fill:#407BFF"></path><path d="M98.12,288.38a150.27,150.27,0,0,0,40,0s-1.41-8.52,1.33-22.68c.34-1.73,3.13-12,3.63-13.69,5.4-18.18,8.38-22.79-16.39-24.56-21.29-1.51-24.53,3.82-25.08,16.4S98.12,288.38,98.12,288.38Z" style="fill:#fff;opacity:0.4"></path><path d="M120.37,274l5.44,2.39s7.25-4.07,9.79-3.5c1.62.37,4.68,4.73,4.68,4.73a1.76,1.76,0,0,1-.83,3h0a1.76,1.76,0,0,1-.91,0l-3.78-1.08s-4.17,1.85-5.81,1.95c-2.87.19-10.77-2.93-10.77-2.93Z" style="fill:#ff8b7b"></path><path d="M123.37,226.63c-3,.78-4.75,2.89-3.6,10.92a2.89,2.89,0,0,1,4.69,0c2.42,2.81,6.75,7.42,6.75,7.42a64.25,64.25,0,0,0,6-6.2c2.3-2.89,3.66.47,3.66.47s1.93-9-2.83-11C133.68,226.42,127,225.69,123.37,226.63Z" style="fill:#407BFF"></path><path d="M123.37,226.63c-3,.78-4.75,2.89-3.6,10.92a2.89,2.89,0,0,1,4.69,0c2.42,2.81,6.75,7.42,6.75,7.42a64.25,64.25,0,0,0,6-6.2c2.3-2.89,3.66.47,3.66.47s1.93-9-2.83-11C133.68,226.42,127,225.69,123.37,226.63Z" style="fill:#fff;opacity:0.6000000000000001"></path><path d="M101.6,243.85c-.31,7-1.34,19.91-2.21,30,41,16.51,15.14-2.21,15.14-2.21s-8.21-5.6-4.36-19,2.68-21.78,2.68-21.78l-1.31-2.84C103.63,230,102,235.2,101.6,243.85Z" style="opacity:0.1"></path><path d="M109.4,228.79c5.32-.28,7,1.87-.84,21.25-1.25,3.09-3.27,9.42-2.21,12.59,1.92,5.72,18.8,12.52,18.8,12.52l-2.47,5.73S94.5,271.5,95.19,264.79,100.67,229.26,109.4,228.79Z" style="fill:#407BFF"></path><path d="M109.4,228.79c5.32-.28,7,1.87-.84,21.25-1.25,3.09-3.27,9.42-2.21,12.59,1.92,5.72,18.8,12.52,18.8,12.52l-2.47,5.73S94.5,271.5,95.19,264.79,100.67,229.26,109.4,228.79Z" style="fill:#fff;opacity:0.6000000000000001"></path><path d="M131.61,242.77s10.87-9.33,6.72-13c-2.09-1.86-8.53-3.54-14.19-2.24C122.78,227.83,121.54,231.83,131.61,242.77Z" style="fill:#ff8b7b"></path><path d="M138.25,233.24a14,14,0,0,0-.36-3c-1-.51-2.73-2.4-.86-5.36L131,214.27c-1.14,4.82-2.13,12.58-6.58,14.13,0,0-1.4,3.65,5,11.53Z" style="fill:#ff8b7b"></path><path d="M131,214.27c-.38,1.61-.75,3.55-1.23,5.48a10.5,10.5,0,0,0,7,9.52c-.66-.93-1-2.41.24-4.36Z" style="opacity:0.2"></path><path d="M129.75,205.14c-1.31,8.18-2,11.6,1.11,16.65,4.74,7.6,15.07,7.41,18.8-.2,3.35-6.86,4.94-19.12-2.26-24.05a11.3,11.3,0,0,0-17.65,7.6Z" style="fill:#ff8b7b"></path><path d="M142.84,211.52c-.2.65,0,1.28.39,1.41s.93-.28,1.13-.92,0-1.27-.39-1.41S143.06,210.93,142.84,211.52Z" style="fill:#263238"></path><path d="M150.08,213.83c-.21.66,0,1.28.39,1.41s.93-.28,1.13-.92,0-1.27-.39-1.4S150.28,213.2,150.08,213.83Z" style="fill:#263238"></path><path d="M151,212.9l1.68,0S151.52,213.9,151,212.9Z" style="fill:#263238"></path><path d="M147.47,214.29a18.07,18.07,0,0,0,1,4.82,2.93,2.93,0,0,1-2.43-.3Z" style="fill:#ff5652"></path><path d="M141.76,220.22a5.67,5.67,0,0,0,.92.36.19.19,0,0,0,.25-.11h0a.2.2,0,0,0-.14-.25,5.33,5.33,0,0,1-3.51-3.3.2.2,0,0,0-.38.11A5.5,5.5,0,0,0,141.76,220.22Z" style="fill:#263238"></path><path d="M140.38,209.14a.39.39,0,0,0,.46-.07,4.68,4.68,0,0,1,3.62-.94.41.41,0,0,0,.47-.33.4.4,0,0,0-.32-.45h0a5.38,5.38,0,0,0-4.33,1.17.39.39,0,0,0,0,.55h0A.17.17,0,0,0,140.38,209.14Z" style="fill:#263238"></path><path d="M153.31,211.18a.41.41,0,0,0,.4,0,.39.39,0,0,0,.12-.55,3.86,3.86,0,0,0-3.13-1.87.37.37,0,0,0-.39.36v0a.38.38,0,0,0,.39.39h0a3.17,3.17,0,0,1,2.43,1.5A.4.4,0,0,0,153.31,211.18Z" style="fill:#263238"></path><path d="M143.74,210.64l1.68,0S144.27,211.6,143.74,210.64Z" style="fill:#263238"></path><path d="M129,208.84s4.56,5.89,7,.62,11.86-7.34,10.06-10.4a22.56,22.56,0,0,1,6.33,6.13.49.49,0,0,0,.91-.3c-.25-3.53-1.64-10.49-8.7-10.22,0,0-7.39-5.5-13.71-1.12C124.85,197.71,129,208.84,129,208.84Z" style="fill:#263238"></path><path d="M142.55,194.49s-10.86-7.27-17.85,6.24-17.16,16.41-11,24.43,17.5,6.22,17.56,1.9-2.78-8.07-.94-13.94S142.55,194.49,142.55,194.49Z" style="fill:#263238"></path><path d="M126.17,210.85a5.93,5.93,0,0,0,2.2,4c1.65,1.27,3.26,0,3.47-2,.17-1.78-.47-4.59-2.43-5.12a2.68,2.68,0,0,0-3.24,3.14Z" style="fill:#ff8b7b"></path></g><g id="freepik--Desk--inject-15"><path d="M229.29,409.71l-19.62-5.39-2.46-118.86h-7L197.8,404.32l-19.62,5.39a5.49,5.49,0,0,0-4,5.29h59.17A5.49,5.49,0,0,0,229.29,409.71Z" style="fill:#263238"></path><path d="M229.29,409.71l-19.62-5.39-2.46-118.86h-7L197.8,404.32l-19.62,5.39a5.49,5.49,0,0,0-4,5.29h59.17A5.49,5.49,0,0,0,229.29,409.71Z" style="fill:#fff;opacity:0.5"></path><path d="M195.71,415v-3.16a2.92,2.92,0,0,1,1.28-2.42l6.74-4.6V290.15h-2V404.82l-9.86,4.67a2.93,2.93,0,0,0-1.68,2.65V415Z" style="fill:#fff;opacity:0.2"></path><rect x="136.26" y="288.12" width="150.62" height="4.06" style="fill:#263238"></rect><rect x="136.26" y="288.12" width="150.62" height="4.06" style="fill:#fff;opacity:0.30000000000000004"></rect><rect x="211.77" y="288.12" width="75.1" height="4.06" style="opacity:0.2"></rect><rect x="127.17" y="284.06" width="168.79" height="4.06" style="fill:#263238"></rect><rect x="202.69" y="284.06" width="93.27" height="4.06" style="opacity:0.30000000000000004"></rect></g><g id="freepik--Arrows--inject-15"><path d="M330.16,260.32v-26.5h0v-4.9a12.43,12.43,0,0,0-12.41-12.41H243.4A12.43,12.43,0,0,0,231,228.92v42.16h3.27V228.92a9.15,9.15,0,0,1,9.14-9.14h74.34a9.15,9.15,0,0,1,9.14,9.14v31.4H323l5.52,9,5.52-9Z" style="fill:#407BFF"></path><rect x="187.38" y="270.57" width="213.56" height="3.27" style="fill:#407BFF"></rect></g><g id="freepik--Codes--inject-15"><path d="M243.37,288.43h-25.3a2.64,2.64,0,0,1-2.64-2.64v-36a2.64,2.64,0,0,1,2.64-2.64h29.22a2.64,2.64,0,0,1,2.64,2.64v36a2.64,2.64,0,0,1-2.64,2.64Z" style="fill:#407BFF"></path><path d="M243.37,288.43h-25.3a2.64,2.64,0,0,1-2.64-2.64v-36a2.64,2.64,0,0,1,2.64-2.64h29.22a2.64,2.64,0,0,1,2.64,2.64v36a2.64,2.64,0,0,1-2.64,2.64Z" style="fill:#fff;opacity:0.8"></path><path d="M247.29,247.16H218.07a2.64,2.64,0,0,0-2.64,2.64v3.88h34.5V249.8A2.64,2.64,0,0,0,247.29,247.16Z" style="fill:#263238"></path><circle cx="246.01" cy="250.59" r="1.1" style="fill:#407BFF"></circle><circle cx="241.62" cy="250.59" r="1.1" style="fill:#407BFF"></circle><circle cx="237.24" cy="250.59" r="1.1" style="fill:#407BFF"></circle><path d="M229.69,260.31l-3.86,1.42,3.86,1.4v1.45l-5.52-2.1V261l5.52-2.11Z" style="fill:#263238"></path><path d="M233.85,256h1.61L231.63,267H230Z" style="fill:#263238"></path><path d="M241.19,261v1.5l-5.52,2.1v-1.45l3.86-1.4-3.86-1.42v-1.44Z" style="fill:#263238"></path><rect x="218.5" y="270.69" width="7.74" height="1.72" rx="0.79" style="fill:#263238"></rect><rect x="227.77" y="270.69" width="9.67" height="1.72" rx="0.79" style="fill:#263238"></rect><rect x="238.98" y="270.69" width="7.87" height="1.72" rx="0.79" style="fill:#263238"></rect><rect x="218.5" y="274.97" width="8.38" height="1.72" rx="0.79" style="fill:#263238"></rect><rect x="228.42" y="274.97" width="10.32" height="1.72" rx="0.79" style="fill:#263238"></rect><rect x="240.27" y="274.97" width="6.58" height="1.72" rx="0.79" style="fill:#263238"></rect><rect x="218.5" y="279.24" width="7.09" height="1.72" rx="0.79" style="fill:#263238"></rect><rect x="227.13" y="279.24" width="9.67" height="1.72" rx="0.79" style="fill:#263238"></rect><rect x="238.33" y="279.24" width="8.52" height="1.72" rx="0.79" style="fill:#263238"></rect><rect x="218.5" y="283.51" width="9.67" height="1.72" rx="0.79" style="fill:#263238"></rect><rect x="229.71" y="283.51" width="9.03" height="1.72" rx="0.79" style="fill:#263238"></rect><rect x="240.27" y="283.51" width="6.58" height="1.72" rx="0.79" style="fill:#263238"></rect><path d="M339.46,235.88h-25.3a2.64,2.64,0,0,1-2.64-2.64v-36a2.64,2.64,0,0,1,2.64-2.64h29.22a2.64,2.64,0,0,1,2.64,2.64v36a2.64,2.64,0,0,1-2.64,2.64Z" style="fill:#407BFF"></path><path d="M339.46,235.88h-25.3a2.64,2.64,0,0,1-2.64-2.64v-36a2.64,2.64,0,0,1,2.64-2.64h29.22a2.64,2.64,0,0,1,2.64,2.64v36a2.64,2.64,0,0,1-2.64,2.64Z" style="fill:#fff;opacity:0.8"></path><path d="M343.38,194.61H314.16a2.64,2.64,0,0,0-2.64,2.64v3.89H346v-3.89A2.64,2.64,0,0,0,343.38,194.61Z" style="fill:#263238"></path><circle cx="342.1" cy="198.05" r="1.1" style="fill:#407BFF"></circle><circle cx="337.72" cy="198.05" r="1.1" style="fill:#407BFF"></circle><circle cx="333.33" cy="198.05" r="1.1" style="fill:#407BFF"></circle><path d="M325.79,207.77l-3.87,1.41,3.87,1.41V212l-5.53-2.1v-1.51l5.53-2.1Z" style="fill:#263238"></path><path d="M329.94,203.47h1.61l-3.83,10.94h-1.61Z" style="fill:#263238"></path><path d="M337.29,208.43v1.51l-5.53,2.1v-1.45l3.87-1.41-3.87-1.41v-1.44Z" style="fill:#263238"></path><rect x="314.6" y="218.15" width="7.74" height="1.72" rx="0.79" style="fill:#263238"></rect><rect x="323.87" y="218.15" width="9.67" height="1.72" rx="0.79" style="fill:#263238"></rect><rect x="335.07" y="218.15" width="7.87" height="1.72" rx="0.79" style="fill:#263238"></rect><rect x="314.6" y="222.42" width="8.38" height="1.72" rx="0.79" style="fill:#263238"></rect><rect x="324.51" y="222.42" width="10.32" height="1.72" rx="0.79" style="fill:#263238"></rect><rect x="336.36" y="222.42" width="6.58" height="1.72" rx="0.79" style="fill:#263238"></rect><rect x="314.6" y="226.69" width="7.09" height="1.72" rx="0.79" style="fill:#263238"></rect><rect x="323.22" y="226.69" width="9.67" height="1.72" rx="0.79" style="fill:#263238"></rect><rect x="334.42" y="226.69" width="8.52" height="1.72" rx="0.79" style="fill:#263238"></rect><rect x="314.6" y="230.96" width="9.67" height="1.72" rx="0.79" style="fill:#263238"></rect><rect x="325.8" y="230.96" width="9.03" height="1.72" rx="0.79" style="fill:#263238"></rect><rect x="336.36" y="230.96" width="6.58" height="1.72" rx="0.79" style="fill:#263238"></rect><path d="M408.64,288.43h-25.3a2.64,2.64,0,0,1-2.64-2.64v-36a2.64,2.64,0,0,1,2.64-2.64h29.22a2.64,2.64,0,0,1,2.64,2.64v36a2.64,2.64,0,0,1-2.64,2.64Z" style="fill:#407BFF"></path><path d="M408.64,288.43h-25.3a2.64,2.64,0,0,1-2.64-2.64v-36a2.64,2.64,0,0,1,2.64-2.64h29.22a2.64,2.64,0,0,1,2.64,2.64v36a2.64,2.64,0,0,1-2.64,2.64Z" style="fill:#fff;opacity:0.8"></path><path d="M412.56,247.16H383.34a2.64,2.64,0,0,0-2.64,2.64v3.88h34.5V249.8A2.64,2.64,0,0,0,412.56,247.16Z" style="fill:#263238"></path><circle cx="411.28" cy="250.59" r="1.1" style="fill:#407BFF"></circle><circle cx="406.9" cy="250.59" r="1.1" style="fill:#407BFF"></circle><circle cx="402.51" cy="250.59" r="1.1" style="fill:#407BFF"></circle><path d="M395,260.31l-3.87,1.42,3.87,1.4v1.45l-5.53-2.1V261l5.53-2.11Z" style="fill:#263238"></path><path d="M399.12,256h1.62L396.91,267h-1.62Z" style="fill:#263238"></path><path d="M406.47,261v1.5l-5.52,2.1v-1.45l3.86-1.4L401,260.31v-1.44Z" style="fill:#263238"></path><rect x="383.78" y="270.69" width="7.74" height="1.72" rx="0.79" style="fill:#263238"></rect><rect x="393.05" y="270.69" width="9.67" height="1.72" rx="0.79" style="fill:#263238"></rect><rect x="404.25" y="270.69" width="7.87" height="1.72" rx="0.79" style="fill:#263238"></rect><rect x="383.78" y="274.97" width="8.38" height="1.72" rx="0.79" style="fill:#263238"></rect><rect x="393.69" y="274.97" width="10.32" height="1.72" rx="0.79" style="fill:#263238"></rect><rect x="405.54" y="274.97" width="6.58" height="1.72" rx="0.79" style="fill:#263238"></rect><rect x="383.78" y="279.24" width="7.09" height="1.72" rx="0.79" style="fill:#263238"></rect><rect x="392.4" y="279.24" width="9.67" height="1.72" rx="0.79" style="fill:#263238"></rect><rect x="403.61" y="279.24" width="8.52" height="1.72" rx="0.79" style="fill:#263238"></rect><rect x="383.78" y="283.51" width="9.67" height="1.72" rx="0.79" style="fill:#263238"></rect><rect x="394.98" y="283.51" width="9.03" height="1.72" rx="0.79" style="fill:#263238"></rect><rect x="405.54" y="283.51" width="6.58" height="1.72" rx="0.79" style="fill:#263238"></rect><path d="M296.37,288.43h-25.3a2.64,2.64,0,0,1-2.64-2.64v-36a2.64,2.64,0,0,1,2.64-2.64h29.22a2.64,2.64,0,0,1,2.64,2.64v36a2.64,2.64,0,0,1-2.64,2.64Z" style="fill:#407BFF"></path><path d="M296.37,288.43h-25.3a2.64,2.64,0,0,1-2.64-2.64v-36a2.64,2.64,0,0,1,2.64-2.64h29.22a2.64,2.64,0,0,1,2.64,2.64v36a2.64,2.64,0,0,1-2.64,2.64Z" style="fill:#fff;opacity:0.8"></path><path d="M300.29,247.16H271.07a2.64,2.64,0,0,0-2.64,2.64v3.88h34.5V249.8A2.64,2.64,0,0,0,300.29,247.16Z" style="fill:#263238"></path><circle cx="299.01" cy="250.59" r="1.1" style="fill:#407BFF"></circle><circle cx="294.63" cy="250.59" r="1.1" style="fill:#407BFF"></circle><circle cx="290.24" cy="250.59" r="1.1" style="fill:#407BFF"></circle><path d="M282.7,260.31l-3.87,1.42,3.87,1.4v1.45l-5.53-2.1V261l5.53-2.11Z" style="fill:#263238"></path><path d="M286.85,256h1.62L284.64,267H283Z" style="fill:#263238"></path><path d="M294.2,261v1.5l-5.52,2.1v-1.45l3.86-1.4-3.86-1.42v-1.44Z" style="fill:#263238"></path><rect x="271.51" y="270.69" width="9.67" height="1.72" rx="0.79" style="fill:#263238"></rect><rect x="282.71" y="270.69" width="9.67" height="1.72" rx="0.79" style="fill:#263238"></rect><rect x="293.92" y="270.69" width="5.94" height="1.72" rx="0.79" style="fill:#263238"></rect><rect x="271.51" y="274.97" width="7.74" height="1.72" rx="0.79" style="fill:#263238"></rect><rect x="280.78" y="274.97" width="10.32" height="1.72" rx="0.79" style="fill:#263238"></rect><rect x="292.63" y="274.97" width="7.23" height="1.72" rx="0.79" style="fill:#263238"></rect><rect x="271.51" y="279.24" width="9.67" height="1.72" rx="0.79" style="fill:#263238"></rect><rect x="282.71" y="279.24" width="9.67" height="1.72" rx="0.79" style="fill:#263238"></rect><rect x="293.92" y="279.24" width="5.94" height="1.72" rx="0.79" style="fill:#263238"></rect><rect x="271.51" y="283.51" width="6.45" height="1.72" rx="0.79" style="fill:#263238"></rect><rect x="279.49" y="283.51" width="10.96" height="1.72" rx="0.79" style="fill:#263238"></rect><rect x="291.98" y="283.51" width="7.87" height="1.72" rx="0.79" style="fill:#263238"></rect><circle cx="360.63" cy="272.21" r="8.93" style="fill:#263238"></circle><path d="M359.83,277.55,354.28,272a1.07,1.07,0,0,1,0-1.52h0a1.07,1.07,0,0,1,1.52,0l4,4,9.57-9.58a1.07,1.07,0,0,1,1.52,0h0a1.07,1.07,0,0,1,0,1.52Z" style="fill:#407BFF"></path><g style="opacity:0.5"><path d="M359.83,277.55,354.28,272a1.07,1.07,0,0,1,0-1.52h0a1.07,1.07,0,0,1,1.52,0l4,4,9.57-9.58a1.07,1.07,0,0,1,1.52,0h0a1.07,1.07,0,0,1,0,1.52Z" style="fill:#fff"></path></g><circle cx="360.63" cy="218.15" r="8.93" style="fill:#263238"></circle><path d="M366.06,212.71h0a1.07,1.07,0,0,0-1.52,0l-3.91,3.92-3.92-3.92a1.07,1.07,0,0,0-1.52,0h0a1.09,1.09,0,0,0,0,1.52l3.92,3.92-3.92,3.91a1.09,1.09,0,0,0,0,1.52h0a1.07,1.07,0,0,0,1.52,0l3.92-3.91,3.91,3.91a1.07,1.07,0,0,0,1.52,0h0a1.07,1.07,0,0,0,0-1.52l-3.91-3.91,3.91-3.92A1.07,1.07,0,0,0,366.06,212.71Z" style="fill:#407BFF"></path><path d="M366.06,212.71h0a1.07,1.07,0,0,0-1.52,0l-3.91,3.92-3.92-3.92a1.07,1.07,0,0,0-1.52,0h0a1.09,1.09,0,0,0,0,1.52l3.92,3.92-3.92,3.91a1.09,1.09,0,0,0,0,1.52h0a1.07,1.07,0,0,0,1.52,0l3.92-3.91,3.91,3.91a1.07,1.07,0,0,0,1.52,0h0a1.07,1.07,0,0,0,0-1.52l-3.91-3.91,3.91-3.92A1.07,1.07,0,0,0,366.06,212.71Z" style="fill:#fff;opacity:0.5"></path><path d="M356,219.24H345.77a1.09,1.09,0,0,1-1.09-1.09h0a1.09,1.09,0,0,1,1.09-1.09H356Z" style="fill:#263238"></path></g><g id="freepik--Button--inject-15"><path d="M299.36,205.76l-34.48,8.71-34.47-8.71a9,9,0,0,1-6.75-8.67v-14a8.93,8.93,0,0,1,8.94-8.93h64.57a8.93,8.93,0,0,1,8.93,8.93v14A9,9,0,0,1,299.36,205.76Z" style="fill:#407BFF"></path><path d="M233.57,187.49a2.27,2.27,0,0,1,1,3.23,2.15,2.15,0,0,1-1,.79,3.46,3.46,0,0,1-1.46.28h-1.27v1.74h-1.46v-6.32h2.73A3.46,3.46,0,0,1,233.57,187.49Zm-.53,2.82a1.13,1.13,0,0,0,0-1.62,1.56,1.56,0,0,0-1-.29h-1.19v2.2H232A1.56,1.56,0,0,0,233,190.31Z" style="fill:#fff"></path><path d="M236.57,192.89a2.89,2.89,0,0,1-.75-2.14v-3.54h1.46v3.48c0,1.14.47,1.7,1.41,1.7a1.31,1.31,0,0,0,1.05-.41,1.91,1.91,0,0,0,.36-1.29v-3.48h1.44v3.54a3,3,0,0,1-5,2.14Z" style="fill:#fff"></path><path d="M243,187.21h1.46v5.13h3.17v1.19H243Z" style="fill:#fff"></path><path d="M248.44,187.21h1.46v5.13h3.17v1.19h-4.63Z" style="fill:#fff"></path><path d="M260.48,193.53l-1.22-1.76h-1.35v1.76h-1.46v-6.32h2.74a3.41,3.41,0,0,1,1.45.28,2.06,2.06,0,0,1,1.29,2,2.13,2.13,0,0,1-.34,1.22,2.08,2.08,0,0,1-1,.78l1.42,2Zm-.37-4.84a1.56,1.56,0,0,0-1-.29h-1.19v2.2h1.19a1.56,1.56,0,0,0,1-.28,1,1,0,0,0,.34-.82A1,1,0,0,0,260.11,188.69Z" style="fill:#fff"></path><path d="M268,192.36v1.17h-4.89v-6.32h4.77v1.17h-3.32v1.38h2.93v1.13h-2.93v1.47Z" style="fill:#fff"></path><path d="M276,194.21a2.1,2.1,0,0,1-.74.58,2.38,2.38,0,0,1-1,.19,2.72,2.72,0,0,1-1.28-.3,5.52,5.52,0,0,1-1.3-1.07,3.48,3.48,0,0,1-1.53-.55,3,3,0,0,1-1-1.14,3.23,3.23,0,0,1-.37-1.55,3.14,3.14,0,0,1,.45-1.67,3.08,3.08,0,0,1,1.23-1.17,3.88,3.88,0,0,1,3.55,0,3.15,3.15,0,0,1,1.23,1.17,3.06,3.06,0,0,1,.46,1.67,3.16,3.16,0,0,1-.62,1.93,3.22,3.22,0,0,1-1.64,1.16,1.63,1.63,0,0,0,.44.34,1,1,0,0,0,.45.1,1.38,1.38,0,0,0,1-.47Zm-5.49-2.79a1.89,1.89,0,0,0,.71.72,2,2,0,0,0,1,.25,2,2,0,0,0,1-.25,2,2,0,0,0,.71-.72,2.33,2.33,0,0,0,0-2.1,2,2,0,0,0-.71-.72,2,2,0,0,0-1-.25,2,2,0,0,0-1,.25,1.89,1.89,0,0,0-.71.72,2.25,2.25,0,0,0,0,2.1Z" style="fill:#fff"></path><path d="M277.45,192.89a2.85,2.85,0,0,1-.76-2.14v-3.54h1.47v3.48c0,1.14.47,1.7,1.4,1.7a1.3,1.3,0,0,0,1.05-.41,1.91,1.91,0,0,0,.36-1.29v-3.48h1.45v3.54a3,3,0,0,1-5,2.14Z" style="fill:#fff"></path><path d="M288.76,192.36v1.17h-4.9v-6.32h4.78v1.17h-3.32v1.38h2.93v1.13h-2.93v1.47Z" style="fill:#fff"></path><path d="M290.55,193.44a3.72,3.72,0,0,1-1.13-.53l.5-1.1a3.5,3.5,0,0,0,1,.47,3.59,3.59,0,0,0,1.12.18,1.84,1.84,0,0,0,.92-.18.56.56,0,0,0,.3-.49.48.48,0,0,0-.18-.38,1.37,1.37,0,0,0-.45-.24c-.19-.06-.43-.12-.75-.19a10.35,10.35,0,0,1-1.18-.35,1.89,1.89,0,0,1-.79-.55,1.48,1.48,0,0,1-.33-1,1.76,1.76,0,0,1,.3-1,2,2,0,0,1,.9-.71,3.74,3.74,0,0,1,1.46-.26,4.73,4.73,0,0,1,1.19.15,3.4,3.4,0,0,1,1,.41l-.45,1.11a3.55,3.55,0,0,0-1.75-.49,1.67,1.67,0,0,0-.91.19.62.62,0,0,0-.3.53.52.52,0,0,0,.34.48,4.92,4.92,0,0,0,1,.31,10.35,10.35,0,0,1,1.18.35,1.87,1.87,0,0,1,.79.54,1.44,1.44,0,0,1,.33,1,1.75,1.75,0,0,1-.3,1,2.08,2.08,0,0,1-.91.71,3.75,3.75,0,0,1-1.47.26A5.34,5.34,0,0,1,290.55,193.44Z" style="fill:#fff"></path><path d="M296.9,188.4h-2v-1.19h5.51v1.19h-2v5.13H296.9Z" style="fill:#fff"></path></g><g id="freepik--Device--inject-15"><path d="M128.23,281h60.32a1.47,1.47,0,0,1,0,2.93H128.23a1.47,1.47,0,1,1,0-2.93Z" style="fill:#1a2e35"></path><path d="M187.75,283h-25a.7.7,0,0,1-.66-.93l10.07-28.75a2,2,0,0,1,1.86-1.33h25a.7.7,0,0,1,.66.93l-10.07,28.75A2,2,0,0,1,187.75,283Z" style="fill:#1a2e35"></path><path d="M188.64,283h-25a.7.7,0,0,1-.65-.93l10.06-28.75a2,2,0,0,1,1.87-1.33h25a.71.71,0,0,1,.66.93L190.5,281.68A2,2,0,0,1,188.64,283Z" style="fill:#1a2e35"></path><path d="M188.64,283h-25a.7.7,0,0,1-.65-.93l10.06-28.75a2,2,0,0,1,1.87-1.33h25a.71.71,0,0,1,.66.93L190.5,281.68A2,2,0,0,1,188.64,283Z" style="fill:#fff;opacity:0.7000000000000001"></path><path d="M160.42,283.9a1.47,1.47,0,1,0,0-2.93H128.23a1.47,1.47,0,1,0,0,2.93Z" style="fill:#fff;opacity:0.7000000000000001"></path><polygon points="192.18 253.19 199.12 253.19 198.54 254.86 191.59 254.86 192.18 253.19" style="fill:#407BFF"></polygon></g><g id="freepik--Icon--inject-15"><circle cx="187.41" cy="146.59" r="41.48" style="fill:#407BFF"></circle><circle cx="187.41" cy="146.59" r="41.48" style="fill:#fff;opacity:0.30000000000000004"></circle><path d="M174.62,158.44V136.07a8.45,8.45,0,1,0-5.37,0v22.37a8.44,8.44,0,1,0,5.37,0ZM171.93,125a3.07,3.07,0,1,1-3.06,3.07A3.07,3.07,0,0,1,171.93,125Zm0,44.5a3.07,3.07,0,1,1,3.07-3.06A3.06,3.06,0,0,1,171.93,169.5Z" style="fill:#fff;opacity:0.9"></path><path d="M209.4,158.44V136.5a11.12,11.12,0,0,0-11.11-11.11h-8V121l-7.08,7.08,7.08,7.09v-4.4h8A5.75,5.75,0,0,1,204,136.5v21.94a8.45,8.45,0,1,0,5.37,0Zm-2.68,11.06a3.07,3.07,0,1,1,3.07-3.06A3.06,3.06,0,0,1,206.72,169.5Z" style="fill:#fff;opacity:0.9"></path></g></svg>